{"title":"Kung Fu Panda 2 DVDScr XviD-ZJM","uid":6612344,"size":736458752,"categoryP":"video","categoryS":"movies","magnet":"?xt=urn:btih:7ae97bf09daeafc83c00a92edf9913d764455356&amp;dn=Kung+Fu+Panda+2+DVDScr+XviD-ZJM&amp;tr=udp%3A%2F%2Ftracker.openbittorrent.com%3A80&amp;tr=udp%3A%2F%2Fopen.demonii.com%3A1337&amp;tr=udp%3A%2F%2Ftracker.coppersurfer.tk%3A6969&amp;tr=udp%3A%2F%2Fexodus.desync.com%3A6969","seeders":1,"leechers":0,"uploader":"DibyaTPB","files":1,"time":1313650854,"description":"\nFormat                           : AVI\nFormat/Info                      : Audio Video Interleave / http://www.imdb.com/title/tt1302011/           \nFile size                        : 702 MiB\nDuration                         : 1h 23mn\nOverall bit rate                 : 1 170 Kbps\nWriting application              : VirtualDubMod 1.5.10.1 (Build 2366/Release)\nWriting library                  : VirtualDubMod Build 2366/Release\n\nVideo\nID                               : 0\nFormat                           : MPEG-4 Visual\nFormat profile                   : Advanced Simple@L5\nFormat settings, BVOP            : Yes\nFormat settings, QPel            : No\nFormat settings, GMC             : No warppoints\nFormat settings, Matrix          : Default (H.263)\nMuxing mode                      : Packed bitstream\nCodec ID                         : XVID\nCodec ID/Hint                    : XviD\nDuration                         : 1h 23mn\nBit rate                         : 1 030 Kbps\nWidth                            : 640 pixels\nHeight                           : 288 pixels\nDisplay aspect ratio             : 2.222\nFrame rate                       : 29.970 fps\nResolution                       : 8 bits\nColorimetry                      : 4:2:0\nScan type                        : Progressive\nBits/(Pixel*Frame)               : 0.187\nStream size                      : 618 MiB (88%)\nWriting library                  : XviD 1.1.0 (UTC 2005-11-22)\n\nAudio\nID                               : 1\nFormat                           : MPEG Audio\nFormat version                   : Version 1\nFormat profile                   : Layer 3\nFormat_Settings_Mode             : Joint stereo\nFormat_Settings_ModeExtension    : MS Stereo\nCodec ID                         : 55\nCodec ID/Hint                    : MP3\nDuration                         : 1h 23mn\nBit rate mode                    : Constant\nBit rate                         : 128 Kbps\nChannel(s)                       : 2 channels\nSampling rate                    : 48.0 KHz\nStream size                      : 76.8 MiB (11%)\nAlignment                        : Split accross interleaves\nInterleave, duration             : 33 ms (1.00 video frame)\nInterleave, preload duration     : 500 ms\nWriting library                  : LAME3.96.1\n","torrent":{"xt":"urn:btih:7ae97bf09daeafc83c00a92edf9913d764455356","amp;dn":"Kung+Fu+Panda+2+DVDScr+XviD-ZJM","amp;tr":["udp%3A%2F%2Ftracker.openbittorrent.com%3A80","udp%3A%2F%2Fopen.demonii.com%3A1337","udp%3A%2F%2Ftracker.coppersurfer.tk%3A6969","udp%3A%2F%2Fexodus.desync.com%3A6969"],"infoHash":"7ae97bf09daeafc83c00a92edf9913d764455356","infoHashBuffer":{"type":"Buffer","data":[122,233,123,240,157,174,175,200,60,0,169,46,223,153,19,215,100,69,83,86]},"announce":[],"urlList":[]}}